<?xml version="1.0" standalone="no"?><!DOCTYPE svg PUBLIC "-//W3C//DTD SVG 1.1//EN" "http://www.w3.org/Graphics/SVG/1.1/DTD/svg11.dtd"><svg t="1495503867298" class="icon" style="" viewBox="0 0 1024 1024" version="1.1" xmlns="http://www.w3.org/2000/svg" p-id="3087" xmlns:xlink="http://www.w3.org/1999/xlink" width="200" height="200"><defs><style type="text/css"></style></defs><path d="M210.432 948.36224l-28.672-179.2-181.76-28.672 208.384-205.824 210.432 208.384zM813.568 948.736l-208.384-205.824 210.432-208.384 208.384 205.824-181.76 28.672z" fill="#FFC729" p-id="3088"></path><path d="M519.168 785.92c-196.096 0-354.304-157.696-354.304-354.304S322.56 77.312 519.168 77.312s354.304 157.696 354.304 354.304-160.256 354.304-354.304 354.304z" fill="#F48E31" p-id="3089"></path><path d="M653.21984 627.9424l-134.144-71.68-134.144 71.68 26.112-150.528-109.568-105.472 150.528-21.504 67.072-136.192 67.072 136.192 150.528 21.504-110.08 105.472 26.624 150.528z m-136.192-124.416l71.68 38.4-14.336-78.848 57.344-57.344-78.848-11.776-35.84-71.68-35.84 71.68-78.848 11.776 57.344 57.344-14.336 78.848 71.68-38.4z" fill="#FFFFFF" p-id="3090"></path></svg>