<?xml version="1.0" standalone="no"?><!DOCTYPE svg PUBLIC "-//W3C//DTD SVG 1.1//EN" "http://www.w3.org/Graphics/SVG/1.1/DTD/svg11.dtd"><svg t="1495509284617" class="icon" style="" viewBox="0 0 1024 1024" version="1.1" xmlns="http://www.w3.org/2000/svg" p-id="3343" xmlns:xlink="http://www.w3.org/1999/xlink" width="200" height="200"><defs><style type="text/css"></style></defs><path d="M391.5 290.6h-296c-6.6 0-12-5.4-12-12v-126c0-6.6 5.4-12 12-12h296c6.6 0 12 5.4 12 12v126c0 6.6-5.4 12-12 12zM750.5 290.6h-296c-6.6 0-12-5.4-12-12v-126c0-6.6 5.4-12 12-12h296c6.6 0 12 5.4 12 12v126c0 6.6-5.4 12-12 12zM934.6 290.6h-126c-6.6 0-12-5.4-12-12v-126c0-6.6 5.4-12 12-12h126c6.6 0 12 5.4 12 12v126c0 6.6-5.4 12-12 12zM391.5 669.5h-296c-6.6 0-12-5.4-12-12v-126c0-6.6 5.4-12 12-12h296c6.6 0 12 5.4 12 12v126c0 6.6-5.4 12-12 12zM751.3 669.5h-296c-6.6 0-12-5.4-12-12v-126c0-6.6 5.4-12 12-12h296c6.6 0 12 5.4 12 12v126c0 6.6-5.4 12-12 12zM934.6 669.5h-126c-6.6 0-12-5.4-12-12v-126c0-6.6 5.4-12 12-12h126c6.6 0 12 5.4 12 12v126c0 6.6-5.4 12-12 12zM581.2 479.8h-296c-6.6 0-12-5.4-12-12v-126c0-6.6 5.4-12 12-12h296c6.6 0 12 5.4 12 12v126c0 6.6-5.4 12-12 12zM934.6 479.8h-296c-6.6 0-12-5.4-12-12v-126c0-6.6 5.4-12 12-12h296c6.6 0 12 5.4 12 12v126c0 6.6-5.4 12-12 12zM221.5 479.8h-126c-6.6 0-12-5.4-12-12v-126c0-6.6 5.4-12 12-12h126c6.6 0 12 5.4 12 12v126c0 6.6-5.4 12-12 12zM580 859.3H284c-6.6 0-12-5.4-12-12v-126c0-6.6 5.4-12 12-12h296c6.6 0 12 5.4 12 12v126c0 6.6-5.4 12-12 12zM934.6 859.3h-296c-6.6 0-12-5.4-12-12v-126c0-6.6 5.4-12 12-12h296c6.6 0 12 5.4 12 12v126c0 6.6-5.4 12-12 12zM221.5 859.3h-126c-6.6 0-12-5.4-12-12v-126c0-6.6 5.4-12 12-12h126c6.6 0 12 5.4 12 12v126c0 6.6-5.4 12-12 12z" p-id="3344" fill="#2c2c2c"></path></svg>